<?xml version="1.0" standalone="no"?>
<!DOCTYPE svg PUBLIC "-//W3C//DTD SVG 20010904//EN"
 "http://www.w3.org/TR/2001/REC-SVG-20010904/DTD/svg10.dtd">
<svg version="1.0" xmlns="http://www.w3.org/2000/svg"
 width="26.000000pt" height="26.000000pt" viewBox="0 0 26.000000 26.000000"
 preserveAspectRatio="xMidYMid meet">

<g transform="translate(0.000000,26.000000) scale(0.100000,-0.100000)"
fill="#000000" stroke="none">
<path d="M179 243 c-13 -10 -33 -23 -43 -28 -10 -6 -18 -14 -16 -19 1 -4 -16
-27 -37 -50 -22 -22 -50 -59 -62 -80 -19 -34 -20 -41 -8 -53 12 -12 19 -11 53
8 21 12 58 40 80 62 23 21 46 38 50 37 8 -2 30 28 56 78 24 47 -26 79 -73 45z
m-22 -99 c10 -26 -105 -129 -124 -111 -14 15 78 127 104 127 8 0 16 -7 20 -16z"/>
</g>
</svg>
